<?xml version="1.0" standalone="no"?>
<!DOCTYPE svg PUBLIC "-//W3C//DTD SVG 20010904//EN"
 "http://www.w3.org/TR/2001/REC-SVG-20010904/DTD/svg10.dtd">
<svg version="1.0" xmlns="http://www.w3.org/2000/svg"
 width="512.000000pt" height="512.000000pt" viewBox="0 0 512.000000 512.000000"
 preserveAspectRatio="xMidYMid meet">

<g transform="translate(0.000000,512.000000) scale(0.100000,-0.100000)"
fill="#000000" stroke="none">
<path d="M4410 3078 l0 -1153 -975 975 -975 975 0 -983 0 -982 470 0 470 0 0
-335 0 -335 -832 0 -833 -1 508 -506 508 -506 30 29 c25 24 29 25 29 9 0 -15
11 -8 50 30 46 45 50 47 50 25 0 -22 4 -20 50 25 l50 49 0 -39 0 -39 50 49
c46 45 50 47 50 25 0 -22 4 -20 50 25 39 38 50 45 50 30 0 -15 11 -8 50 30
l50 49 0 -44 0 -44 50 49 c46 45 50 47 50 25 0 -22 4 -20 50 25 l50 49 0 -44
0 -44 50 49 c39 38 50 45 50 30 0 -15 11 -8 50 30 45 45 50 47 50 26 0 -23 1
-24 20 -6 19 17 20 17 20 -1 0 -13 16 -3 60 41 54 53 60 57 60 35 0 -22 7 -18
64 39 l64 63 7 -32 7 -32 49 48 c45 45 49 46 49 24 0 -22 4 -20 50 25 l50 49
0 -44 0 -44 50 49 50 49 0 -44 0 -44 50 49 c28 27 50 46 50 42 0 -24 152 169
243 308 210 322 339 681 388 1080 14 116 14 434 0 550 -49 399 -178 758 -388
1080 -72 110 -136 195 -200 268 l-43 48 0 -1153z"/>
</g>
</svg>
