<?xml version="1.0" encoding="UTF-8"?>
<!DOCTYPE svg PUBLIC "-//W3C//DTD SVG 1.1//EN" "http://www.w3.org/Graphics/SVG/1.1/DTD/svg11.dtd">
<svg xmlns="http://www.w3.org/2000/svg" version="1.1" width="512px" height="512px" style="shape-rendering:geometricPrecision; text-rendering:geometricPrecision; image-rendering:optimizeQuality; fill-rule:evenodd; clip-rule:evenodd" xmlns:xlink="http://www.w3.org/1999/xlink">
<g><path style="opacity:0.998" fill="#5a428b" d="M 232.5,-0.5 C 247.833,-0.5 263.167,-0.5 278.5,-0.5C 279.568,0.434475 280.901,0.767809 282.5,0.5C 281.737,1.26791 280.737,1.76791 279.5,2C 186.632,95.0346 93.6321,187.868 0.5,280.5C 0.67158,279.508 0.338246,278.842 -0.5,278.5C -0.5,263.167 -0.5,247.833 -0.5,232.5C 0.461384,230.735 0.794717,228.735 0.5,226.5C 76.0835,152.417 151.25,77.7503 226,2.5C 226.464,1.90558 226.631,1.23891 226.5,0.5C 228.735,0.794717 230.735,0.461384 232.5,-0.5 Z"/></g>
<g><path style="opacity:0.998" fill="#563f86" d="M 282.5,0.5 C 301.363,2.20549 319.697,6.20549 337.5,12.5C 295.035,55.4654 252.368,98.2987 209.5,141C 216.346,141.172 223.013,141.672 229.5,142.5C 215.167,142.5 200.833,142.5 186.5,142.5C 186.5,149.833 186.5,157.167 186.5,164.5C 128.5,222.167 70.5,279.833 12.5,337.5C 5.94624,319.066 1.94624,300.066 0.5,280.5C 93.6321,187.868 186.632,95.0346 279.5,2C 280.737,1.76791 281.737,1.26791 282.5,0.5 Z"/></g>
<g><path style="opacity:0.989" fill="#5e4691" d="M 226.5,0.5 C 226.631,1.23891 226.464,1.90558 226,2.5C 151.25,77.7503 76.0835,152.417 0.5,226.5C 14.7158,129.188 66.3825,60.0213 155.5,19C 178.313,9.54672 201.98,3.38006 226.5,0.5 Z"/></g>
<g><path style="opacity:0.998" fill="#533c81" d="M 337.5,12.5 C 349.242,16.1912 360.575,20.8579 371.5,26.5C 324.868,73.6321 278.035,120.632 231,167.5C 230.5,181.496 230.333,195.496 230.5,209.5C 230.5,233.167 230.5,256.833 230.5,280.5C 230.5,298.167 230.5,315.833 230.5,333.5C 230.167,333.5 229.833,333.5 229.5,333.5C 229.5,269.833 229.5,206.167 229.5,142.5C 223.013,141.672 216.346,141.172 209.5,141C 252.368,98.2987 295.035,55.4654 337.5,12.5 Z"/></g>
<g><path style="opacity:0.999" fill="#50397d" d="M 371.5,26.5 C 380.995,31.0776 389.995,36.411 398.5,42.5C 342.527,98.1395 286.527,153.806 230.5,209.5C 230.333,195.496 230.5,181.496 231,167.5C 278.035,120.632 324.868,73.6321 371.5,26.5 Z"/></g>
<g><path style="opacity:0.999" fill="#4c3678" d="M 398.5,42.5 C 412.992,51.6521 425.992,62.6521 437.5,75.5C 436.761,75.369 436.094,75.5357 435.5,76C 367.299,144.368 298.965,212.535 230.5,280.5C 230.5,256.833 230.5,233.167 230.5,209.5C 286.527,153.806 342.527,98.1395 398.5,42.5 Z"/></g>
<g><path style="opacity:0.999" fill="#483272" d="M 437.5,75.5 C 446.926,84.2567 455.259,93.9234 462.5,104.5C 462.631,105.239 462.464,105.906 462,106.5C 386.299,182.035 310.799,257.701 235.5,333.5C 233.833,333.5 232.167,333.5 230.5,333.5C 230.5,315.833 230.5,298.167 230.5,280.5C 298.965,212.535 367.299,144.368 435.5,76C 436.094,75.5357 436.761,75.369 437.5,75.5 Z"/></g>
<g><path style="opacity:0.999" fill="#45306e" d="M 462.5,104.5 C 468.244,111.646 473.244,119.313 477.5,127.5C 477.649,128.552 477.483,129.552 477,130.5C 409.299,198.035 341.799,265.701 274.5,333.5C 261.5,333.5 248.5,333.5 235.5,333.5C 310.799,257.701 386.299,182.035 462,106.5C 462.464,105.906 462.631,105.239 462.5,104.5 Z"/></g>
<g><path style="opacity:1" fill="#fdfdfe" d="M 229.5,142.5 C 229.5,206.167 229.5,269.833 229.5,333.5C 260.662,334.498 291.996,334.832 323.5,334.5C 323.5,345.833 323.5,357.167 323.5,368.5C 277.833,368.5 232.167,368.5 186.5,368.5C 186.5,350.167 186.5,331.833 186.5,313.5C 186.5,293.833 186.5,274.167 186.5,254.5C 186.5,240.5 186.5,226.5 186.5,212.5C 186.5,196.5 186.5,180.5 186.5,164.5C 186.5,157.167 186.5,149.833 186.5,142.5C 200.833,142.5 215.167,142.5 229.5,142.5 Z"/></g>
<g><path style="opacity:0.999" fill="#422d6a" d="M 477.5,127.5 C 485.83,141.797 492.83,156.797 498.5,172.5C 497.761,172.369 497.094,172.536 496.5,173C 439.299,230.368 381.965,287.535 324.5,344.5C 324.5,340.833 324.5,337.167 324.5,333.5C 307.833,333.5 291.167,333.5 274.5,333.5C 341.799,265.701 409.299,198.035 477,130.5C 477.483,129.552 477.649,128.552 477.5,127.5 Z"/></g>
<g><path style="opacity:0.999" fill="#533c81" d="M 186.5,164.5 C 186.5,180.5 186.5,196.5 186.5,212.5C 133.167,265.5 79.8333,318.5 26.5,371.5C 20.8579,360.575 16.1912,349.242 12.5,337.5C 70.5,279.833 128.5,222.167 186.5,164.5 Z"/></g>
<g><path style="opacity:0.998" fill="#3f2a66" d="M 498.5,172.5 C 502.773,185.59 506.106,198.924 508.5,212.5C 507.778,212.082 507.278,211.416 507,210.5C 407.965,309.368 309.132,408.368 210.5,507.5C 189.012,504.557 168.678,498.224 149.5,488.5C 188.833,448.833 228.167,409.167 267.5,369.5C 286.5,369.5 305.5,369.5 324.5,369.5C 324.5,361.167 324.5,352.833 324.5,344.5C 381.965,287.535 439.299,230.368 496.5,173C 497.094,172.536 497.761,172.369 498.5,172.5 Z"/></g>
<g><path style="opacity:0.998" fill="#3b2761" d="M 508.5,212.5 C 509.349,219.321 510.349,225.988 511.5,232.5C 511.5,243.5 511.5,254.5 511.5,265.5C 429.25,346.25 347.416,427.583 266,509.5C 265.536,510.094 265.369,510.761 265.5,511.5C 254.5,511.5 243.5,511.5 232.5,511.5C 225.112,510.493 217.779,509.16 210.5,507.5C 309.132,408.368 407.965,309.368 507,210.5C 507.278,211.416 507.778,212.082 508.5,212.5 Z"/></g>
<g><path style="opacity:0.999" fill="#50397d" d="M 186.5,212.5 C 186.5,226.5 186.5,240.5 186.5,254.5C 138.5,302.167 90.5,349.833 42.5,397.5C 36.1779,389.539 30.8445,380.872 26.5,371.5C 79.8333,318.5 133.167,265.5 186.5,212.5 Z"/></g>
<g><path style="opacity:0.998" fill="#4d3679" d="M 186.5,254.5 C 186.5,274.167 186.5,293.833 186.5,313.5C 146.784,352.216 107.784,391.549 69.5,431.5C 58.9847,421.324 49.9847,409.99 42.5,397.5C 90.5,349.833 138.5,302.167 186.5,254.5 Z"/></g>
<g><path style="opacity:0.997" fill="#39245d" d="M 511.5,265.5 C 511.5,269.833 511.5,274.167 511.5,278.5C 510.479,282.98 509.813,287.647 509.5,292.5C 436.215,364.118 363.549,436.451 291.5,509.5C 286.99,509.884 282.657,510.551 278.5,511.5C 274.167,511.5 269.833,511.5 265.5,511.5C 265.369,510.761 265.536,510.094 266,509.5C 347.416,427.583 429.25,346.25 511.5,265.5 Z"/></g>
<g><path style="opacity:0.995" fill="#362259" d="M 509.5,292.5 C 493.773,383.039 444.773,448.539 362.5,489C 339.777,499.097 316.11,505.931 291.5,509.5C 363.549,436.451 436.215,364.118 509.5,292.5 Z"/></g>
<g><path style="opacity:0.998" fill="#493373" d="M 186.5,313.5 C 186.5,331.833 186.5,350.167 186.5,368.5C 190.298,369.483 194.298,369.817 198.5,369.5C 167.5,400.833 136.5,432.167 105.5,463.5C 91.9876,454.661 79.9876,443.995 69.5,431.5C 107.784,391.549 146.784,352.216 186.5,313.5 Z"/></g>
<g><path style="opacity:1" fill="#8b7ea4" d="M 229.5,333.5 C 229.833,333.5 230.167,333.5 230.5,333.5C 232.167,333.5 233.833,333.5 235.5,333.5C 248.5,333.5 261.5,333.5 274.5,333.5C 291.167,333.5 307.833,333.5 324.5,333.5C 324.5,337.167 324.5,340.833 324.5,344.5C 324.5,352.833 324.5,361.167 324.5,369.5C 305.5,369.5 286.5,369.5 267.5,369.5C 244.5,369.5 221.5,369.5 198.5,369.5C 194.298,369.817 190.298,369.483 186.5,368.5C 232.167,368.5 277.833,368.5 323.5,368.5C 323.5,357.167 323.5,345.833 323.5,334.5C 291.996,334.832 260.662,334.498 229.5,333.5 Z"/></g>
<g><path style="opacity:0.998" fill="#442e6c" d="M 198.5,369.5 C 221.5,369.5 244.5,369.5 267.5,369.5C 228.167,409.167 188.833,448.833 149.5,488.5C 133.569,482.206 118.902,473.873 105.5,463.5C 136.5,432.167 167.5,400.833 198.5,369.5 Z"/></g>
</svg>
